<?xml version="1.0" encoding="UTF-8" standalone="no"?>
<!DOCTYPE svg PUBLIC "-//W3C//DTD SVG 1.1//EN"
 "http://www.w3.org/Graphics/SVG/1.1/DTD/svg11.dtd">
<!-- Generated by graphviz version 2.40.1 (20161225.0304)
 -->
<!-- Title: models_diagram Pages: 1 -->
<svg width="748pt" height="868pt"
 viewBox="0.00 0.00 748.40 868.12" xmlns="http://www.w3.org/2000/svg" xmlns:xlink="http://www.w3.org/1999/xlink">
<g id="graph0" class="graph" transform="scale(1 1) rotate(0) translate(36 832.1222)">
<title>models_diagram</title>
<polygon fill="#ffffff" stroke="transparent" points="-36,36 -36,-832.1222 712.3986,-832.1222 712.3986,36 -36,36"/>
<!-- Allcodes -->
<g id="node1" class="node">
<title>Allcodes</title>
<polygon fill="#add8e6" stroke="transparent" points="102,-313.0903 102,-335.0903 188,-335.0903 188,-313.0903 102,-313.0903"/>
<polygon fill="none" stroke="#000000" points="102,-313.0903 102,-335.0903 188,-335.0903 188,-313.0903 102,-313.0903"/>
<text text-anchor="start" x="127.228" y="-322.0903" font-family="Times,serif" font-weight="bold" font-size="10.00" fill="#000000">Allcodes</text>
<polygon fill="none" stroke="#000000" points="102,-291.0903 102,-313.0903 188,-313.0903 188,-291.0903 102,-291.0903"/>
<text text-anchor="start" x="107" y="-300.0903" font-family="Times,serif" text-decoration="underline" font-size="10.00" fill="#000000">id</text>
<text text-anchor="start" x="114.779" y="-300.0903" font-family="Times,serif" font-size="10.00" fill="#000000">: NUMBER</text>
<polygon fill="none" stroke="#000000" points="102,-269.0903 102,-291.0903 188,-291.0903 188,-269.0903 102,-269.0903"/>
<text text-anchor="start" x="107" y="-277.0903" font-family="Times,serif" font-size="10.00" fill="#000000">keyMap: STRING</text>
<polygon fill="none" stroke="#000000" points="102,-247.0903 102,-269.0903 188,-269.0903 188,-247.0903 102,-247.0903"/>
<text text-anchor="start" x="107" y="-255.0903" font-family="Times,serif" font-size="10.00" fill="#000000">type: STRING</text>
<polygon fill="none" stroke="#000000" points="102,-225.0903 102,-247.0903 188,-247.0903 188,-225.0903 102,-225.0903"/>
<text text-anchor="start" x="106.816" y="-233.0903" font-family="Times,serif" font-size="10.00" fill="#000000">valueEN: STRING</text>
<polygon fill="none" stroke="#000000" points="102,-203.0903 102,-225.0903 188,-225.0903 188,-203.0903 102,-203.0903"/>
<text text-anchor="start" x="107" y="-211.0903" font-family="Times,serif" font-size="10.00" fill="#000000">valueVI: STRING</text>
<polygon fill="none" stroke="#000000" points="102,-181.0903 102,-203.0903 188,-203.0903 188,-181.0903 102,-181.0903"/>
<text text-anchor="start" x="107" y="-189.0903" font-family="Times,serif" font-size="10.00" fill="#000000">createdAt: DATE</text>
<polygon fill="none" stroke="#000000" points="102,-159.0903 102,-181.0903 188,-181.0903 188,-159.0903 102,-159.0903"/>
<text text-anchor="start" x="107" y="-167.0903" font-family="Times,serif" font-size="10.00" fill="#000000">updatedAt: DATE</text>
</g>
<!-- Bookings -->
<g id="node2" class="node">
<title>Bookings</title>
<polygon fill="#add8e6" stroke="transparent" points="544.4662,-774.1222 544.4662,-796.1222 646.4662,-796.1222 646.4662,-774.1222 544.4662,-774.1222"/>
<polygon fill="none" stroke="#000000" points="544.4662,-774.1222 544.4662,-796.1222 646.4662,-796.1222 646.4662,-774.1222 544.4662,-774.1222"/>
<text text-anchor="start" x="576.2977" y="-783.1222" font-family="Times,serif" font-weight="bold" font-size="10.00" fill="#000000">Bookings</text>
<polygon fill="none" stroke="#000000" points="544.4662,-752.1222 544.4662,-774.1222 646.4662,-774.1222 646.4662,-752.1222 544.4662,-752.1222"/>
<text text-anchor="start" x="549.4662" y="-761.1222" font-family="Times,serif" text-decoration="underline" font-size="10.00" fill="#000000">id</text>
<text text-anchor="start" x="557.2452" y="-761.1222" font-family="Times,serif" font-size="10.00" fill="#000000">: NUMBER</text>
<polygon fill="none" stroke="#000000" points="544.4662,-730.1222 544.4662,-752.1222 646.4662,-752.1222 646.4662,-730.1222 544.4662,-730.1222"/>
<text text-anchor="start" x="549.4662" y="-738.1222" font-family="Times,serif" font-size="10.00" fill="#000000">statusId: STRING</text>
<polygon fill="none" stroke="#000000" points="544.4662,-708.1222 544.4662,-730.1222 646.4662,-730.1222 646.4662,-708.1222 544.4662,-708.1222"/>
<text text-anchor="start" x="549.4662" y="-716.1222" font-family="Times,serif" font-size="10.00" fill="#000000">doctorId: NUMBER</text>
<polygon fill="none" stroke="#000000" points="544.4662,-686.1222 544.4662,-708.1222 646.4662,-708.1222 646.4662,-686.1222 544.4662,-686.1222"/>
<text text-anchor="start" x="549.4662" y="-694.1222" font-family="Times,serif" font-size="10.00" fill="#000000">patientId: NUMBER</text>
<polygon fill="none" stroke="#000000" points="544.4662,-664.1222 544.4662,-686.1222 646.4662,-686.1222 646.4662,-664.1222 544.4662,-664.1222"/>
<text text-anchor="start" x="549.2222" y="-672.1222" font-family="Times,serif" font-size="10.00" fill="#000000">dateBooking: STRING</text>
<polygon fill="none" stroke="#000000" points="544.4662,-642.1222 544.4662,-664.1222 646.4662,-664.1222 646.4662,-642.1222 544.4662,-642.1222"/>
<text text-anchor="start" x="549.4662" y="-650.1222" font-family="Times,serif" font-size="10.00" fill="#000000">timetype: STRING</text>
<polygon fill="none" stroke="#000000" points="544.4662,-620.1222 544.4662,-642.1222 646.4662,-642.1222 646.4662,-620.1222 544.4662,-620.1222"/>
<text text-anchor="start" x="549.4662" y="-628.1222" font-family="Times,serif" font-size="10.00" fill="#000000">token: STRING</text>
<polygon fill="none" stroke="#000000" points="544.4662,-598.1222 544.4662,-620.1222 646.4662,-620.1222 646.4662,-598.1222 544.4662,-598.1222"/>
<text text-anchor="start" x="549.4662" y="-606.1222" font-family="Times,serif" font-size="10.00" fill="#000000">createdAt: DATE</text>
<polygon fill="none" stroke="#000000" points="544.4662,-576.1222 544.4662,-598.1222 646.4662,-598.1222 646.4662,-576.1222 544.4662,-576.1222"/>
<text text-anchor="start" x="549.4662" y="-584.1222" font-family="Times,serif" font-size="10.00" fill="#000000">updatedAt: DATE</text>
</g>
<!-- Clinics -->
<g id="node3" class="node">
<title>Clinics</title>
<polygon fill="#add8e6" stroke="transparent" points="417.4662,-740.1222 417.4662,-762.1222 502.4662,-762.1222 502.4662,-740.1222 417.4662,-740.1222"/>
<polygon fill="none" stroke="#000000" points="417.4662,-740.1222 417.4662,-762.1222 502.4662,-762.1222 502.4662,-740.1222 417.4662,-740.1222"/>
<text text-anchor="start" x="445.7992" y="-749.1222" font-family="Times,serif" font-weight="bold" font-size="10.00" fill="#000000">Clinics</text>
<polygon fill="none" stroke="#000000" points="417.4662,-718.1222 417.4662,-740.1222 502.4662,-740.1222 502.4662,-718.1222 417.4662,-718.1222"/>
<text text-anchor="start" x="422.4662" y="-727.1222" font-family="Times,serif" text-decoration="underline" font-size="10.00" fill="#000000">id</text>
<text text-anchor="start" x="430.2452" y="-727.1222" font-family="Times,serif" font-size="10.00" fill="#000000">: NUMBER</text>
<polygon fill="none" stroke="#000000" points="417.4662,-696.1222 417.4662,-718.1222 502.4662,-718.1222 502.4662,-696.1222 417.4662,-696.1222"/>
<text text-anchor="start" x="422.4662" y="-704.1222" font-family="Times,serif" font-size="10.00" fill="#000000">address: STRING</text>
<polygon fill="none" stroke="#000000" points="417.4662,-674.1222 417.4662,-696.1222 502.4662,-696.1222 502.4662,-674.1222 417.4662,-674.1222"/>
<text text-anchor="start" x="422.3372" y="-682.1222" font-family="Times,serif" font-size="10.00" fill="#000000">description: TEXT</text>
<polygon fill="none" stroke="#000000" points="417.4662,-652.1222 417.4662,-674.1222 502.4662,-674.1222 502.4662,-652.1222 417.4662,-652.1222"/>
<text text-anchor="start" x="422.4662" y="-660.1222" font-family="Times,serif" font-size="10.00" fill="#000000">image: STRING</text>
<polygon fill="none" stroke="#000000" points="417.4662,-630.1222 417.4662,-652.1222 502.4662,-652.1222 502.4662,-630.1222 417.4662,-630.1222"/>
<text text-anchor="start" x="422.4662" y="-638.1222" font-family="Times,serif" font-size="10.00" fill="#000000">createdAt: DATE</text>
<polygon fill="none" stroke="#000000" points="417.4662,-608.1222 417.4662,-630.1222 502.4662,-630.1222 502.4662,-608.1222 417.4662,-608.1222"/>
<text text-anchor="start" x="422.4662" y="-616.1222" font-family="Times,serif" font-size="10.00" fill="#000000">updatedAt: DATE</text>
</g>
<!-- Doctor_Clinic_Specialty -->
<g id="node4" class="node">
<title>Doctor_Clinic_Specialty</title>
<polygon fill="#add8e6" stroke="transparent" points="257.4662,-740.1222 257.4662,-762.1222 366.4662,-762.1222 366.4662,-740.1222 257.4662,-740.1222"/>
<polygon fill="none" stroke="#000000" points="257.4662,-740.1222 257.4662,-762.1222 366.4662,-762.1222 366.4662,-740.1222 257.4662,-740.1222"/>
<text text-anchor="start" x="262.2542" y="-749.1222" font-family="Times,serif" font-weight="bold" font-size="10.00" fill="#000000">Doctor_Clinic_Specialty</text>
<polygon fill="none" stroke="#000000" points="257.4662,-718.1222 257.4662,-740.1222 366.4662,-740.1222 366.4662,-718.1222 257.4662,-718.1222"/>
<text text-anchor="start" x="262.4662" y="-727.1222" font-family="Times,serif" text-decoration="underline" font-size="10.00" fill="#000000">id</text>
<text text-anchor="start" x="270.2452" y="-727.1222" font-family="Times,serif" font-size="10.00" fill="#000000">: NUMBER</text>
<polygon fill="none" stroke="#000000" points="257.4662,-696.1222 257.4662,-718.1222 366.4662,-718.1222 366.4662,-696.1222 257.4662,-696.1222"/>
<text text-anchor="start" x="262.4662" y="-704.1222" font-family="Times,serif" font-size="10.00" fill="#000000">doctorId: NUMBER</text>
<polygon fill="none" stroke="#000000" points="257.4662,-674.1222 257.4662,-696.1222 366.4662,-696.1222 366.4662,-674.1222 257.4662,-674.1222"/>
<text text-anchor="start" x="262.4662" y="-682.1222" font-family="Times,serif" font-size="10.00" fill="#000000">clinicId: NUMBER</text>
<polygon fill="none" stroke="#000000" points="257.4662,-652.1222 257.4662,-674.1222 366.4662,-674.1222 366.4662,-652.1222 257.4662,-652.1222"/>
<text text-anchor="start" x="262.4662" y="-660.1222" font-family="Times,serif" font-size="10.00" fill="#000000">specialtyId: NUMBER</text>
<polygon fill="none" stroke="#000000" points="257.4662,-630.1222 257.4662,-652.1222 366.4662,-652.1222 366.4662,-630.1222 257.4662,-630.1222"/>
<text text-anchor="start" x="262.4662" y="-638.1222" font-family="Times,serif" font-size="10.00" fill="#000000">createdAt: DATE</text>
<polygon fill="none" stroke="#000000" points="257.4662,-608.1222 257.4662,-630.1222 366.4662,-630.1222 366.4662,-608.1222 257.4662,-608.1222"/>
<text text-anchor="start" x="262.4662" y="-616.1222" font-family="Times,serif" font-size="10.00" fill="#000000">updatedAt: DATE</text>
</g>
<!-- Doctor_Infor -->
<g id="node5" class="node">
<title>Doctor_Infor</title>
<polygon fill="#add8e6" stroke="transparent" points="93,-653.154 93,-675.154 198,-675.154 198,-653.154 93,-653.154"/>
<polygon fill="none" stroke="#000000" points="93,-653.154 93,-675.154 198,-675.154 198,-653.154 93,-653.154"/>
<text text-anchor="start" x="119.1235" y="-662.154" font-family="Times,serif" font-weight="bold" font-size="10.00" fill="#000000">Doctor_Infor</text>
<polygon fill="none" stroke="#000000" points="93,-631.154 93,-653.154 198,-653.154 198,-631.154 93,-631.154"/>
<text text-anchor="start" x="98" y="-640.154" font-family="Times,serif" text-decoration="underline" font-size="10.00" fill="#000000">id</text>
<text text-anchor="start" x="105.779" y="-640.154" font-family="Times,serif" font-size="10.00" fill="#000000">: NUMBER</text>
<polygon fill="none" stroke="#000000" points="93,-609.154 93,-631.154 198,-631.154 198,-609.154 93,-609.154"/>
<text text-anchor="start" x="98" y="-618.154" font-family="Times,serif" font-style="italic" text-decoration="underline" font-size="10.00" fill="#000000">doctorId</text>
<text text-anchor="start" x="131.876" y="-618.154" font-family="Times,serif" font-size="10.00" fill="#000000">: NUMBER</text>
<polygon fill="none" stroke="#000000" points="93,-587.154 93,-609.154 198,-609.154 198,-587.154 93,-587.154"/>
<text text-anchor="start" x="98" y="-596.154" font-family="Times,serif" font-style="italic" text-decoration="underline" font-size="10.00" fill="#000000">priceId</text>
<text text-anchor="start" x="126.315" y="-596.154" font-family="Times,serif" font-size="10.00" fill="#000000">: STRING</text>
<polygon fill="none" stroke="#000000" points="93,-565.154 93,-587.154 198,-587.154 198,-565.154 93,-565.154"/>
<text text-anchor="start" x="98" y="-574.154" font-family="Times,serif" font-style="italic" text-decoration="underline" font-size="10.00" fill="#000000">provinceId</text>
<text text-anchor="start" x="141.315" y="-574.154" font-family="Times,serif" font-size="10.00" fill="#000000">: STRING</text>
<polygon fill="none" stroke="#000000" points="93,-543.154 93,-565.154 198,-565.154 198,-543.154 93,-543.154"/>
<text text-anchor="start" x="98" y="-552.154" font-family="Times,serif" font-style="italic" text-decoration="underline" font-size="10.00" fill="#000000">paymentId</text>
<text text-anchor="start" x="140.765" y="-552.154" font-family="Times,serif" font-size="10.00" fill="#000000">: STRING</text>
<polygon fill="none" stroke="#000000" points="93,-521.154 93,-543.154 198,-543.154 198,-521.154 93,-521.154"/>
<text text-anchor="start" x="97.5935" y="-529.154" font-family="Times,serif" font-size="10.00" fill="#000000">addressClinic: STRING</text>
<polygon fill="none" stroke="#000000" points="93,-499.154 93,-521.154 198,-521.154 198,-499.154 93,-499.154"/>
<text text-anchor="start" x="98" y="-507.154" font-family="Times,serif" font-size="10.00" fill="#000000">nameClinic: STRING</text>
<polygon fill="none" stroke="#000000" points="93,-477.154 93,-499.154 198,-499.154 198,-477.154 93,-477.154"/>
<text text-anchor="start" x="98" y="-485.154" font-family="Times,serif" font-size="10.00" fill="#000000">note: STRING</text>
<polygon fill="none" stroke="#000000" points="93,-455.154 93,-477.154 198,-477.154 198,-455.154 93,-455.154"/>
<text text-anchor="start" x="98" y="-463.154" font-family="Times,serif" font-size="10.00" fill="#000000">count: NUMBER</text>
<polygon fill="none" stroke="#000000" points="93,-433.154 93,-455.154 198,-455.154 198,-433.154 93,-433.154"/>
<text text-anchor="start" x="98" y="-441.154" font-family="Times,serif" font-size="10.00" fill="#000000">createdAt: DATE</text>
<polygon fill="none" stroke="#000000" points="93,-411.154 93,-433.154 198,-433.154 198,-411.154 93,-411.154"/>
<text text-anchor="start" x="98" y="-419.154" font-family="Times,serif" font-size="10.00" fill="#000000">updatedAt: DATE</text>
</g>
<!-- Doctor_Infor&#45;&gt;Allcodes -->
<g id="edge2" class="edge">
<title>Doctor_Infor&#45;&gt;Allcodes</title>
<path fill="none" stroke="#000000" stroke-width=".75" d="M145,-405.131C145,-381.458 145,-357.4421 145,-335.5197"/>
<polygon fill="#000000" stroke="#000000" stroke-width=".75" points="145.0001,-405.1406 142.3,-411.1406 145,-408.1406 145,-411.1406 145,-411.1406 145,-411.1406 145,-408.1406 147.7,-411.1407 145.0001,-405.1406 145.0001,-405.1406"/>
</g>
<!-- Doctor_Infor&#45;&gt;Doctor_Infor -->
<g id="edge1" class="edge">
<title>Doctor_Infor&#45;&gt;Doctor_Infor</title>
<path fill="none" stroke="#000000" stroke-width=".75" d="M197.6966,-556.6243C217.3348,-557.0659 233.5,-552.5758 233.5,-543.154 233.5,-533.7321 217.3348,-529.242 197.6966,-529.6836"/>
</g>
<!-- Historys -->
<g id="node6" class="node">
<title>Historys</title>
<polygon fill="#add8e6" stroke="transparent" points="512.4662,-196.1222 512.4662,-218.1222 602.4662,-218.1222 602.4662,-196.1222 512.4662,-196.1222"/>
<polygon fill="none" stroke="#000000" points="512.4662,-196.1222 512.4662,-218.1222 602.4662,-218.1222 602.4662,-196.1222 512.4662,-196.1222"/>
<text text-anchor="start" x="540.5242" y="-205.1222" font-family="Times,serif" font-weight="bold" font-size="10.00" fill="#000000">Historys</text>
<polygon fill="none" stroke="#000000" points="512.4662,-174.1222 512.4662,-196.1222 602.4662,-196.1222 602.4662,-174.1222 512.4662,-174.1222"/>
<text text-anchor="start" x="517.4662" y="-183.1222" font-family="Times,serif" text-decoration="underline" font-size="10.00" fill="#000000">id</text>
<text text-anchor="start" x="525.2452" y="-183.1222" font-family="Times,serif" font-size="10.00" fill="#000000">: NUMBER</text>
<polygon fill="none" stroke="#000000" points="512.4662,-152.1222 512.4662,-174.1222 602.4662,-174.1222 602.4662,-152.1222 512.4662,-152.1222"/>
<text text-anchor="start" x="517.0572" y="-160.1222" font-family="Times,serif" font-size="10.00" fill="#000000">paientId: NUMBER</text>
<polygon fill="none" stroke="#000000" points="512.4662,-130.1222 512.4662,-152.1222 602.4662,-152.1222 602.4662,-130.1222 512.4662,-130.1222"/>
<text text-anchor="start" x="517.4662" y="-138.1222" font-family="Times,serif" font-size="10.00" fill="#000000">doctorId: STRING</text>
<polygon fill="none" stroke="#000000" points="512.4662,-108.1222 512.4662,-130.1222 602.4662,-130.1222 602.4662,-108.1222 512.4662,-108.1222"/>
<text text-anchor="start" x="517.4662" y="-116.1222" font-family="Times,serif" font-size="10.00" fill="#000000">description: TEXT</text>
<polygon fill="none" stroke="#000000" points="512.4662,-86.1222 512.4662,-108.1222 602.4662,-108.1222 602.4662,-86.1222 512.4662,-86.1222"/>
<text text-anchor="start" x="517.4662" y="-94.1222" font-family="Times,serif" font-size="10.00" fill="#000000">createdAt: DATE</text>
<polygon fill="none" stroke="#000000" points="512.4662,-64.1222 512.4662,-86.1222 602.4662,-86.1222 602.4662,-64.1222 512.4662,-64.1222"/>
<text text-anchor="start" x="517.4662" y="-72.1222" font-family="Times,serif" font-size="10.00" fill="#000000">updatedAt: DATE</text>
</g>
<!-- MarkDownObjects -->
<g id="node7" class="node">
<title>MarkDownObjects</title>
<polygon fill="#add8e6" stroke="transparent" points="526.3986,-483.1222 526.3986,-505.1222 640.3986,-505.1222 640.3986,-483.1222 526.3986,-483.1222"/>
<polygon fill="none" stroke="#000000" points="526.3986,-483.1222 526.3986,-505.1222 640.3986,-505.1222 640.3986,-483.1222 526.3986,-483.1222"/>
<text text-anchor="start" x="545.0791" y="-492.1222" font-family="Times,serif" font-weight="bold" font-size="10.00" fill="#000000">MarkDownObjects</text>
<polygon fill="none" stroke="#000000" points="526.3986,-461.1222 526.3986,-483.1222 640.3986,-483.1222 640.3986,-461.1222 526.3986,-461.1222"/>
<text text-anchor="start" x="531.3986" y="-470.1222" font-family="Times,serif" text-decoration="underline" font-size="10.00" fill="#000000">id</text>
<text text-anchor="start" x="539.1776" y="-470.1222" font-family="Times,serif" font-size="10.00" fill="#000000">: NUMBER</text>
<polygon fill="none" stroke="#000000" points="526.3986,-439.1222 526.3986,-461.1222 640.3986,-461.1222 640.3986,-439.1222 526.3986,-439.1222"/>
<text text-anchor="start" x="531.3986" y="-447.1222" font-family="Times,serif" font-size="10.00" fill="#000000">contentHTML: TEXT</text>
<polygon fill="none" stroke="#000000" points="526.3986,-417.1222 526.3986,-439.1222 640.3986,-439.1222 640.3986,-417.1222 526.3986,-417.1222"/>
<text text-anchor="start" x="531.3301" y="-425.1222" font-family="Times,serif" font-size="10.00" fill="#000000">contentMarkdown: TEXT</text>
<polygon fill="none" stroke="#000000" points="526.3986,-395.1222 526.3986,-417.1222 640.3986,-417.1222 640.3986,-395.1222 526.3986,-395.1222"/>
<text text-anchor="start" x="531.3986" y="-403.1222" font-family="Times,serif" font-size="10.00" fill="#000000">description: TEXT</text>
<polygon fill="none" stroke="#000000" points="526.3986,-373.1222 526.3986,-395.1222 640.3986,-395.1222 640.3986,-373.1222 526.3986,-373.1222"/>
<text text-anchor="start" x="531.3986" y="-382.1222" font-family="Times,serif" font-style="italic" text-decoration="underline" font-size="10.00" fill="#000000">doctorId</text>
<text text-anchor="start" x="565.2746" y="-382.1222" font-family="Times,serif" font-size="10.00" fill="#000000">: NUMBER</text>
<polygon fill="none" stroke="#000000" points="526.3986,-351.1222 526.3986,-373.1222 640.3986,-373.1222 640.3986,-351.1222 526.3986,-351.1222"/>
<text text-anchor="start" x="531.3986" y="-359.1222" font-family="Times,serif" font-size="10.00" fill="#000000">specialtyId: NUMBER</text>
<polygon fill="none" stroke="#000000" points="526.3986,-329.1222 526.3986,-351.1222 640.3986,-351.1222 640.3986,-329.1222 526.3986,-329.1222"/>
<text text-anchor="start" x="531.3986" y="-337.1222" font-family="Times,serif" font-size="10.00" fill="#000000">clinicId: NUMBER</text>
<polygon fill="none" stroke="#000000" points="526.3986,-307.1222 526.3986,-329.1222 640.3986,-329.1222 640.3986,-307.1222 526.3986,-307.1222"/>
<text text-anchor="start" x="531.3986" y="-315.1222" font-family="Times,serif" font-size="10.00" fill="#000000">createdAt: DATE</text>
<polygon fill="none" stroke="#000000" points="526.3986,-285.1222 526.3986,-307.1222 640.3986,-307.1222 640.3986,-285.1222 526.3986,-285.1222"/>
<text text-anchor="start" x="531.3986" y="-293.1222" font-family="Times,serif" font-size="10.00" fill="#000000">updatedAt: DATE</text>
</g>
<!-- MarkDownObjects&#45;&gt;MarkDownObjects -->
<g id="edge3" class="edge">
<title>MarkDownObjects&#45;&gt;MarkDownObjects</title>
<path fill="none" stroke="#000000" stroke-width=".75" d="M640.6126,-408.6189C660.4105,-408.7617 676.3986,-404.2628 676.3986,-395.1222 676.3986,-385.9815 660.4105,-381.4826 640.6126,-381.6254"/>
</g>
<!-- Schedules -->
<g id="node8" class="node">
<title>Schedules</title>
<polygon fill="#add8e6" stroke="transparent" points=".5,-176 .5,-198 119.5,-198 119.5,-176 .5,-176"/>
<polygon fill="none" stroke="#000000" points=".5,-176 .5,-198 119.5,-198 119.5,-176 .5,-176"/>
<text text-anchor="start" x="39.728" y="-185" font-family="Times,serif" font-weight="bold" font-size="10.00" fill="#000000">Schedules</text>
<polygon fill="none" stroke="#000000" points=".5,-154 .5,-176 119.5,-176 119.5,-154 .5,-154"/>
<text text-anchor="start" x="5.5" y="-163" font-family="Times,serif" text-decoration="underline" font-size="10.00" fill="#000000">id</text>
<text text-anchor="start" x="13.279" y="-163" font-family="Times,serif" font-size="10.00" fill="#000000">: NUMBER</text>
<polygon fill="none" stroke="#000000" points=".5,-132 .5,-154 119.5,-154 119.5,-132 .5,-132"/>
<text text-anchor="start" x="5.433" y="-140" font-family="Times,serif" font-size="10.00" fill="#000000">currentNumber: NUMBER</text>
<polygon fill="none" stroke="#000000" points=".5,-110 .5,-132 119.5,-132 119.5,-110 .5,-110"/>
<text text-anchor="start" x="5.5" y="-118" font-family="Times,serif" font-size="10.00" fill="#000000">maxNumber: NUMBER</text>
<polygon fill="none" stroke="#000000" points=".5,-88 .5,-110 119.5,-110 119.5,-88 .5,-88"/>
<text text-anchor="start" x="5.5" y="-96" font-family="Times,serif" font-size="10.00" fill="#000000">dateSchedule: STRING</text>
<polygon fill="none" stroke="#000000" points=".5,-66 .5,-88 119.5,-88 119.5,-66 .5,-66"/>
<text text-anchor="start" x="5.5" y="-75" font-family="Times,serif" font-style="italic" text-decoration="underline" font-size="10.00" fill="#000000">timeType</text>
<text text-anchor="start" x="43.824" y="-75" font-family="Times,serif" font-size="10.00" fill="#000000">: STRING</text>
<polygon fill="none" stroke="#000000" points=".5,-44 .5,-66 119.5,-66 119.5,-44 .5,-44"/>
<text text-anchor="start" x="5.5" y="-52" font-family="Times,serif" font-size="10.00" fill="#000000">doctorId: NUMBER</text>
<polygon fill="none" stroke="#000000" points=".5,-22 .5,-44 119.5,-44 119.5,-22 .5,-22"/>
<text text-anchor="start" x="5.5" y="-30" font-family="Times,serif" font-size="10.00" fill="#000000">createdAt: DATE</text>
<polygon fill="none" stroke="#000000" points=".5,0 .5,-22 119.5,-22 119.5,0 .5,0"/>
<text text-anchor="start" x="5.5" y="-8" font-family="Times,serif" font-size="10.00" fill="#000000">updatedAt: DATE</text>
</g>
<!-- Schedules&#45;&gt;Allcodes -->
<g id="edge4" class="edge">
<title>Schedules&#45;&gt;Allcodes</title>
<path fill="none" stroke="#000000" stroke-width=".75" d="M116.8584,-198.3476C116.8888,-198.4003 116.9192,-198.4529 116.9495,-198.5055"/>
<polygon fill="#000000" stroke="#000000" stroke-width=".75" points="119.7688,-203.3862 119.1056,-196.8389 118.268,-200.7879 116.7671,-198.1896 116.7671,-198.1896 116.7671,-198.1896 118.268,-200.7879 114.4287,-199.5403 119.7688,-203.3862 119.7688,-203.3862"/>
</g>
<!-- Specialtys -->
<g id="node9" class="node">
<title>Specialtys</title>
<polygon fill="#add8e6" stroke="transparent" points="257.4662,-174.1222 257.4662,-196.1222 342.4662,-196.1222 342.4662,-174.1222 257.4662,-174.1222"/>
<polygon fill="none" stroke="#000000" points="257.4662,-174.1222 257.4662,-196.1222 342.4662,-196.1222 342.4662,-174.1222 257.4662,-174.1222"/>
<text text-anchor="start" x="279.4152" y="-183.1222" font-family="Times,serif" font-weight="bold" font-size="10.00" fill="#000000">Specialtys</text>
<polygon fill="none" stroke="#000000" points="257.4662,-152.1222 257.4662,-174.1222 342.4662,-174.1222 342.4662,-152.1222 257.4662,-152.1222"/>
<text text-anchor="start" x="262.4662" y="-161.1222" font-family="Times,serif" text-decoration="underline" font-size="10.00" fill="#000000">id</text>
<text text-anchor="start" x="270.2452" y="-161.1222" font-family="Times,serif" font-size="10.00" fill="#000000">: NUMBER</text>
<polygon fill="none" stroke="#000000" points="257.4662,-130.1222 257.4662,-152.1222 342.4662,-152.1222 342.4662,-130.1222 257.4662,-130.1222"/>
<text text-anchor="start" x="262.3372" y="-138.1222" font-family="Times,serif" font-size="10.00" fill="#000000">description: TEXT</text>
<polygon fill="none" stroke="#000000" points="257.4662,-108.1222 257.4662,-130.1222 342.4662,-130.1222 342.4662,-108.1222 257.4662,-108.1222"/>
<text text-anchor="start" x="262.4662" y="-116.1222" font-family="Times,serif" font-size="10.00" fill="#000000">image: STRING</text>
<polygon fill="none" stroke="#000000" points="257.4662,-86.1222 257.4662,-108.1222 342.4662,-108.1222 342.4662,-86.1222 257.4662,-86.1222"/>
<text text-anchor="start" x="262.4662" y="-94.1222" font-family="Times,serif" font-size="10.00" fill="#000000">createdAt: DATE</text>
<polygon fill="none" stroke="#000000" points="257.4662,-64.1222 257.4662,-86.1222 342.4662,-86.1222 342.4662,-64.1222 257.4662,-64.1222"/>
<text text-anchor="start" x="262.4662" y="-72.1222" font-family="Times,serif" font-size="10.00" fill="#000000">updatedAt: DATE</text>
</g>
<!-- Users -->
<g id="node10" class="node">
<title>Users</title>
<polygon fill="#add8e6" stroke="transparent" points="348.3986,-516.1222 348.3986,-538.1222 454.3986,-538.1222 454.3986,-516.1222 348.3986,-516.1222"/>
<polygon fill="none" stroke="#000000" points="348.3986,-516.1222 348.3986,-538.1222 454.3986,-538.1222 454.3986,-516.1222 348.3986,-516.1222"/>
<text text-anchor="start" x="390.0161" y="-525.1222" font-family="Times,serif" font-weight="bold" font-size="10.00" fill="#000000">Users</text>
<polygon fill="none" stroke="#000000" points="348.3986,-494.1222 348.3986,-516.1222 454.3986,-516.1222 454.3986,-494.1222 348.3986,-494.1222"/>
<text text-anchor="start" x="353.3986" y="-503.1222" font-family="Times,serif" text-decoration="underline" font-size="10.00" fill="#000000">id</text>
<text text-anchor="start" x="361.1776" y="-503.1222" font-family="Times,serif" font-size="10.00" fill="#000000">: NUMBER</text>
<polygon fill="none" stroke="#000000" points="348.3986,-472.1222 348.3986,-494.1222 454.3986,-494.1222 454.3986,-472.1222 348.3986,-472.1222"/>
<text text-anchor="start" x="353.3986" y="-480.1222" font-family="Times,serif" font-size="10.00" fill="#000000">name: STRING</text>
<polygon fill="none" stroke="#000000" points="348.3986,-450.1222 348.3986,-472.1222 454.3986,-472.1222 454.3986,-450.1222 348.3986,-450.1222"/>
<text text-anchor="start" x="353.3986" y="-458.1222" font-family="Times,serif" font-size="10.00" fill="#000000">email: STRING</text>
<polygon fill="none" stroke="#000000" points="348.3986,-428.1222 348.3986,-450.1222 454.3986,-450.1222 454.3986,-428.1222 348.3986,-428.1222"/>
<text text-anchor="start" x="353.2141" y="-436.1222" font-family="Times,serif" font-size="10.00" fill="#000000">phonenumber: STRING</text>
<polygon fill="none" stroke="#000000" points="348.3986,-406.1222 348.3986,-428.1222 454.3986,-428.1222 454.3986,-406.1222 348.3986,-406.1222"/>
<text text-anchor="start" x="353.3986" y="-414.1222" font-family="Times,serif" font-size="10.00" fill="#000000">address: STRING</text>
<polygon fill="none" stroke="#000000" points="348.3986,-384.1222 348.3986,-406.1222 454.3986,-406.1222 454.3986,-384.1222 348.3986,-384.1222"/>
<text text-anchor="start" x="353.3986" y="-392.1222" font-family="Times,serif" font-size="10.00" fill="#000000">password: STRING</text>
<polygon fill="none" stroke="#000000" points="348.3986,-362.1222 348.3986,-384.1222 454.3986,-384.1222 454.3986,-362.1222 348.3986,-362.1222"/>
<text text-anchor="start" x="353.3986" y="-370.1222" font-family="Times,serif" font-size="10.00" fill="#000000">image: STRING</text>
<polygon fill="none" stroke="#000000" points="348.3986,-340.1222 348.3986,-362.1222 454.3986,-362.1222 454.3986,-340.1222 348.3986,-340.1222"/>
<text text-anchor="start" x="353.3986" y="-349.1222" font-family="Times,serif" font-style="italic" text-decoration="underline" font-size="10.00" fill="#000000">gender</text>
<text text-anchor="start" x="380.6056" y="-349.1222" font-family="Times,serif" font-size="10.00" fill="#000000">: STRING</text>
<polygon fill="none" stroke="#000000" points="348.3986,-318.1222 348.3986,-340.1222 454.3986,-340.1222 454.3986,-318.1222 348.3986,-318.1222"/>
<text text-anchor="start" x="353.3986" y="-327.1222" font-family="Times,serif" font-style="italic" text-decoration="underline" font-size="10.00" fill="#000000">roleId</text>
<text text-anchor="start" x="377.2746" y="-327.1222" font-family="Times,serif" font-size="10.00" fill="#000000">: STRING</text>
<polygon fill="none" stroke="#000000" points="348.3986,-296.1222 348.3986,-318.1222 454.3986,-318.1222 454.3986,-296.1222 348.3986,-296.1222"/>
<text text-anchor="start" x="353.3986" y="-305.1222" font-family="Times,serif" font-style="italic" text-decoration="underline" font-size="10.00" fill="#000000">positionId</text>
<text text-anchor="start" x="393.9536" y="-305.1222" font-family="Times,serif" font-size="10.00" fill="#000000">: STRING</text>
<polygon fill="none" stroke="#000000" points="348.3986,-274.1222 348.3986,-296.1222 454.3986,-296.1222 454.3986,-274.1222 348.3986,-274.1222"/>
<text text-anchor="start" x="353.3986" y="-282.1222" font-family="Times,serif" font-size="10.00" fill="#000000">createdAt: DATE</text>
<polygon fill="none" stroke="#000000" points="348.3986,-252.1222 348.3986,-274.1222 454.3986,-274.1222 454.3986,-252.1222 348.3986,-252.1222"/>
<text text-anchor="start" x="353.3986" y="-260.1222" font-family="Times,serif" font-size="10.00" fill="#000000">updatedAt: DATE</text>
</g>
<!-- Users&#45;&gt;Allcodes -->
<g id="edge5" class="edge">
<title>Users&#45;&gt;Allcodes</title>
<path fill="none" stroke="#000000" stroke-width=".75" d="M342.9132,-361.3556C295.8443,-334.1803 230.7581,-296.6028 188.2793,-272.0776"/>
<polygon fill="#000000" stroke="#000000" stroke-width=".75" points="343.0765,-361.4498 346.9226,-366.7881 345.6746,-362.9498 348.2727,-364.4499 348.2727,-364.4499 348.2727,-364.4499 345.6746,-362.9498 349.6227,-362.1116 343.0765,-361.4498 343.0765,-361.4498"/>
</g>
<!-- Users&#45;&gt;Doctor_Infor -->
<g id="edge7" class="edge">
<title>Users&#45;&gt;Doctor_Infor</title>
<path fill="none" stroke="#000000" stroke-width=".75" d="M348.2727,-425.7944C304.1216,-451.285 241.6284,-487.3655 197.6187,-512.7746"/>
</g>
<!-- Users&#45;&gt;MarkDownObjects -->
<g id="edge6" class="edge">
<title>Users&#45;&gt;MarkDownObjects</title>
<path fill="none" stroke="#000000" stroke-width=".75" d="M454.5298,-395.1222C477.0879,-395.1222 503.4247,-395.1222 526.389,-395.1222"/>
</g>
</g>
</svg>
